Music_LoveAtHome:
	musicheader 3, 1, Music_LoveAtHome_Ch1
	musicheader 1, 2, Music_LoveAtHome_Ch2
	musicheader 1, 3, Music_LoveAtHome_Ch3

Music_LoveAtHome_Ch1:
	tempo 200
	dutycycle $2
	tone $0002
	intensity $8a
	volume $77
	stereopanning $f7
	vibrato $12, $23
	notetype $c, $87
	octave 4
	note D_, 4
Music_LoveAtHome_Ch1_main:
	note D_, 2
	note B_, 2
	note B_, 2
	note A_, 2

	note G_, 2
	note E_, 2
	note G_, 4

	note D_, 3
	note E_, 1
	note D_, 2
	note B_, 2

	note A_, 6
	note __, 2

	note B_, 3
	octave 5
	note C_, 1
	note D_, 2
	octave 4
	note B_, 2

	note G_, 2
	note E_, 2
	note G_, 4

	note D_, 2
	note B_, 2
	note A_, 3
	note B_, 1

	note G_, 6
	note __, 2

	note F#, 2
	note A_, 2
	note A_, 2
	note A_, 2

	note G_, 3
	note A_, 1
	note B_, 4

	note E_, 2
	note G_, 2
	note G_, 2
	note G_, 2

	note F#, 3
	note G_, 1
	note A_, 4

	note B_, 3
	octave 5
	note C_, 1
	note D_, 2
	octave 4
	note B_, 2

	note G_, 2
	note E_, 2
	note G_, 4

	note D_, 2
	note B_, 2
	note A_, 3
	note B_, 1

	note G_, 6
	note __, 2

	note E_, 4
	octave 5
	note C_, 4

	octave 4
	note B_, 6
	note __, 2

	note B_, 4
	note G_, 4

	octave 5
	note D_, 6
	note __, 2

	octave 4
	note B_, 3
	octave 5
	note C_, 1

	note D_, 2
	octave 4
	note B_, 2
	note G_, 2
	note E_, 2

	note G_, 4
	note D_, 2
	octave 5
	note D_, 2

	note C_, 2
	octave 4
	note F#, 2
	note G_, 6
	note __, 2

	loopchannel 0, Music_LoveAtHome_Ch1_main

Music_LoveAtHome_Ch2:
	volume $6a
	dutycycle $1
	tone $0002
	stereopanning $7f
	vibrato $24, $12
	notetype $c, $b7
	intensity $8a
	note __, 4
Music_LoveAtHome_Ch2_main:
	octave 2
	note G_, 2
	note G_, 2
	note G_, 2
	note G_, 2

	octave 3
	note C_, 2
	note C_, 2
	octave 2
	note G_, 4

	note G_, 3
	note G_, 1
	note G_, 2
	note G_, 2

	octave 3
	note D_, 6
	note __, 2

	note G_, 3
	note G_, 1
	note G_, 2
	note G_, 2

	note C_, 2
	note C_, 2
	note C_, 4

	note D_, 2
	note D_, 2
	note D_, 3
	note D_, 1

	octave 2
	note G_, 6
	note __, 2

	octave 3
	note D_, 2
	note D_, 2
	note D_, 2
	note D_, 2

	octave 2
	note G_, 3
	note G_, 1
	note G_, 4

	octave 3
	note C_, 2
	note C_, 2
	note C_, 2
	note C_, 2

	note D_, 3
	note D_, 1
	note D_, 4

	note G_, 3
	note G_, 1
	note G_, 2
	note G_, 2

	note C_, 2
	note C_, 2
	note C_, 4

	note D_, 2
	note D_, 2
	note D_, 3
	note D_, 1

	octave 2
	note G_, 6
	note __, 2

	octave 3
	note C_, 4
	note C_, 4

	octave 2
	note G_, 6
	note __, 2

	octave 3
	note G_, 4
	note E_, 4

	note D_, 6
	note __, 2

	note G_, 3
	note G_, 1
	note G_, 2
	note G_, 2

	note C_, 2
	note C_, 2
	note C_, 4

	note D_, 2
	note D_, 2
	note D_, 2
	note D_, 2

	note G_, 6
	note __, 2

	loopchannel 0, Music_LoveAtHome_Ch2_main

Music_LoveAtHome_Ch3:
	volume $6a
	dutycycle $2
	tone $0002
	stereopanning $77
	vibrato $12, $24
	notetype $c, $b7
	intensity $85
	note B_, 4
Music_LoveAtHome_Ch3_main:
	octave 3
	note B_, 2
	octave 4
	note D_, 2
	note D_, 2
	note C_, 2
	
	note E_, 2
	note C_, 2
	octave 3
	note B_, 4
	
	note B_, 3
	note C_, 1
	note B_, 2
	octave 4
	note D_, 2
	
	note D_, 6
	note __, 2
	
	note D_, 3
	note D_, 1
	note G_, 2
	note D_, 2
	
	note E_, 2
	note C_, 2
	note E_, 4
	
	octave 3
	note B_, 2
	octave 4
	note D_, 2
	note C_, 3
	note D_, 1
	
	octave 3
	note B_, 6
	note __, 2
	
	note A_, 2
	octave 4
	note D_, 2
	note D_, 2
	note D_, 2
	
	octave 3
	note B_, 3
	octave 4
	note C_, 1
	note D_, 4
	
	note C_, 2
	note E_, 2
	note E_, 2
	note E_, 2
	
	note D_, 3
	note E_, 1
	note F#, 4
	
	note G_, 3
	note A_, 1
	note B_, 2
	note G_, 2
	
	note E_, 2
	note C_, 2
	note E_, 4
	
	note D_, 2
	note D_, 2
	note C_, 3
	note D_, 1
	
	octave 3
	note B_, 6
	note __, 2
	
	octave 4
	note C_, 4
	note E_, 4
	
	note D_, 6
	note __, 2
	
	note D_, 4
	note E_, 4
	
	note F#, 6
	note __, 2
	
	note D_, 3
	note D_, 1
	note G_, 2
	note D_, 2
	
	note E_, 2
	note C_, 2
	note E_, 4
	
	note D_, 2
	note D_, 2
	note D_, 2
	note D_, 2
	
	note D_, 6
	note __, 2
	
	loopchannel 0, Music_LoveAtHome_Ch3_main
