Music_FollowMe:
	musicheader 4, 1, Music_FollowMe_Ch1
	musicheader 1, 2, Music_FollowMe_Ch2
	musicheader 1, 3, Music_FollowMe_Ch3
	musicheader 1, 4, Music_FollowMe_Ch4

Music_FollowMe_Ch1:
	volume $77
	stereopanning $77
	tempo $A0
	dutycycle 2
	tone $0002
	octave 4
	notetype $C, $A2
	note E_, 2
	note C#, 2
	octave 3
	note A_, 2
	octave 4
	note C#, 2
	octave 3
	note A_, 2
	note G_, 2
	note E_, 2
	octave 2
	note A_, 2
	octave 3
	note C#, 2
	note __, 2
	note E_, 1
	note A_, 1
	octave 4
	note C#, 1
	note E_, 1
	note G_, 1
	octave 2
	note A_, 2
	note A_, 1
	note A_, 1
	note A#, 1
	note B_, 1
	octave 3
	note C#, 1
Music_FollowMe_Ch1_loop:
	octave 2
	note A_, 2
	octave 3
	note D_, 2
	note F#, 1
	octave 2
	note A_, 2
	note A_, 1
	octave 3
	note D_, 2
	note G_, 2
	note B_, 1
	note D_, 2
	note D_, 1
	octave 2
	note A_, 2
	octave 3
	note D_, 2
	note F#, 1
	octave 2
	note A_, 2
	note A_, 1
	octave 3
	note E_, 2
	note D_, 2
	octave 2
	note A_, 1
	note A_, 1
	note B_, 1
	octave 3
	note C#, 1
	octave 2
	note F#, 2
	note A_, 2
	octave 3
	note D_, 1
	octave 2
	note A_, 2
	note A_, 1
	octave 3
	note D_, 2
	note G_, 2
	note B_, 1
	note D_, 1
	note B_, 1
	note G_, 1
	note A_, 2
	note E_, 2
	note G_, 2
	note A_, 2
	note F#, 1
	note __, 1
	note F#, 1
	note __, 1
	note F#, 1
	note G_, 1
	note G#, 1
	notetype $9, $A2
	note A_, 2
	intensity $81
	notetype $C, $81
	note D_, 2
	note F#, 2
	note A_, 1
	note A_, 1
	octave 4
	note A_, 2
	octave 2
	note A_, 2
	octave 3
	note C#, 2
	note E_, 1
	note E_, 1
	octave 5
	notetype $9, $81
	note C#, 2
	intensity $A2
	octave 3
	notetype $C, $A2
	note D_, 2
	note F#, 2
	note A_, 1
	octave 4
	note D_, 1
	note F#, 1
	note A_, 1
	octave 3
	note D_, 2
	note G_, 2
	note B_, 1
	octave 4
	note D_, 1
	note G_, 1
	note B_, 1
	octave 3
	note D_, 2
	note F#, 2
	note A_, 1
	octave 4
	note D_, 1
	note F#, 1
	note D_, 1
	note C#, 1
	note C_, 1
	octave 3
	note B_, 1
	note A#, 1
	note A_, 1
	note A#, 1
	note B_, 1
	octave 4
	note C#, 1
	octave 3
	note D_, 2
	note F#, 2
	note A_, 1
	octave 4
	note D_, 1
	note F#, 1
	note D_, 1
	octave 3
	note D_, 2
	note G_, 2
	note B_, 1
	octave 4
	note D_, 1
	note F#, 1
	note D_, 1
	note C#, 1
	note C_, 1
	octave 3
	note B_, 1
	note A#, 1
	note A_, 1
	note G_, 1
	note F#, 1
	note E_, 1
	note F#, 1
	note __, 1
	note G_, 1
	note __, 1
	note F#, 1
	octave 2
	note A_, 1
	note B_, 1
	octave 3
	note C#, 1
	loopchannel 0, Music_FollowMe_Ch1_loop

Music_FollowMe_Ch2:
	dutycycle 2
	tone $0001
	octave 4
	notetype $C, $B2
	note A_, 2
	note G_, 2
	note F#, 2
	note G_, 2
	note F#, 2
	note E_, 2
	note D_, 2
	note C#, 2
	octave 3
	note A_, 2
	note __, 2
	note A_, 1
	octave 4
	note C#, 1
	note E_, 1
	note G_, 1
	note A_, 1
	octave 3
	note A_, 2
	note A_, 1
	note A_, 2
	octave 4
	note A_, 2
Music_FollowMe_Ch2_loop:
	octave 3
	note D_, 2
	note F#, 2
	note A_, 2
	note __, 2
	note G_, 2
	note B_, 2
	octave 4
	note D_, 2
	note __, 2
	octave 3
	note D_, 2
	note F#, 2
	note A_, 2
	note __, 2
	note G_, 2
	note F#, 2
	note E_, 2
	note __, 2
	note D_, 2
	note F#, 2
	note A_, 2
	note __, 2
	note G_, 2
	note B_, 2
	octave 4
	note D_, 2
	note D_, 2
	note C#, 2
	octave 3
	note A_, 2
	note B_, 2
	octave 4
	note C#, 2
	note D_, 1
	note __, 1
	note D_, 1
	note __, 1
	note D_, 1
	note __, 3
	dutycycle 3
	intensity $B1
	octave 3
	note D_, 2
	note F#, 2
	note A_, 1
	note A_, 1
	octave 4
	note A_, 2
	octave 2
	note A_, 2
	octave 3
	note C#, 2
	note E_, 1
	note E_, 1
	octave 5
	note C#, 2
	dutycycle 2
	intensity $B2
	octave 4
	note F#, 2
	note D_, 2
	note D_, 2
	note __, 2
	note B_, 2
	note D_, 2
	note D_, 2
	note __, 2
	note A_, 2
	note D_, 2
	note D_, 2
	note __, 2
	note E_, 2
	note C#, 2
	note C#, 2
	note __, 2
	note F#, 2
	note D_, 2
	note D_, 2
	note __, 2
	note B_, 2
	note D_, 2
	note D_, 2
	note A_, 2
	note G_, 2
	note E_, 2
	note D_, 2
	note C#, 2
	note D_, 1
	note __, 1
	note D_, 1
	note __, 1
	note D_, 1
	note __, 3
	loopchannel 0, Music_FollowMe_Ch2_loop

Music_FollowMe_Ch3:
	octave 2
	notetype $C, $13
	note A_, 1
	note __, 3
	note A_, 1
	note __, 3
	note A_, 1
	note __, 3
	note A_, 1
	note __, 3
	note A_, 1
	note __, 3
	note A_, 1
	octave 3
	note C#, 1
	note E_, 1
	note G_, 1
	octave 2
	note A_, 1
	note A_, 1
	note __, 1
	note A_, 1
	note A_, 1
	note G_, 1
	note F#, 1
	note E_, 1
Music_FollowMe_Ch3_loop:
	note D_, 1
	note __, 2
	note D_, 1
	octave 3
	note D_, 1
	note __, 1
	octave 2
	note D_, 1
	note __, 1
	note G_, 1
	note __, 2
	note G_, 1
	octave 3
	note D_, 1
	note __, 1
	octave 2
	note G_, 1
	note __, 1
	note D_, 1
	note __, 2
	note D_, 1
	octave 3
	note D_, 1
	note __, 1
	octave 2
	note D_, 1
	note __, 1
	note A_, 1
	note __, 1
	note A_, 1
	note __, 1
	note B_, 1
	note __, 1
	octave 3
	note C#, 1
	note __, 1
	note D_, 1
	note __, 2
	note D_, 1
	octave 2
	note A_, 1
	note __, 1
	note D_, 1
	note __, 1
	octave 3
	note D_, 1
	note __, 2
	note D_, 1
	octave 2
	note G_, 1
	note __, 1
	note B_, 1
	note __, 1
	note A_, 1
	note __, 1
	note A_, 1
	note __, 1
	note G_, 1
	note __, 1
	note E_, 1
	note __, 1
	note D_, 1
	note __, 1
	note D_, 1
	note __, 1
	octave 3
	note D_, 1
	note __, 1
	octave 2
	note A_, 1
	note __, 1
	note D_, 1
	note __, 1
	note D_, 1
	note __, 1
	note A_, 1
	note __, 1
	octave 3
	note D_, 1
	note __, 1
	octave 1
	note A_, 1
	note __, 1
	note A_, 1
	note __, 1
	octave 2
	note E_, 1
	note __, 1
	octave 3
	note C#, 1
	note __, 1
	octave 2
	note D_, 1
	note __, 1
	note A_, 1
	note __, 1
	octave 3
	note D_, 1
	octave 2
	note D_, 1
	note __, 1
	note A_, 1
	note G_, 1
	note __, 1
	note B_, 1
	note __, 1
	octave 3
	note D_, 1
	octave 2
	note D_, 1
	note __, 1
	note B_, 1
	note D_, 1
	note __, 1
	note A_, 2
	octave 3
	note D_, 1
	octave 2
	note D_, 1
	note __, 1
	note A_, 1
	octave 3
	note C#, 1
	note C_, 1
	octave 2
	note B_, 1
	note A#, 1
	note A_, 1
	note G_, 1
	note F#, 1
	note E_, 1
	note D_, 1
	note __, 1
	note A_, 1
	note __, 1
	octave 3
	note D_, 1
	octave 2
	note D_, 1
	note __, 1
	note A_, 1
	note G_, 1
	note __, 1
	note B_, 1
	note __, 1
	octave 3
	note D_, 1
	octave 2
	note G_, 2
	note B_, 1
	note A_, 1
	note __, 1
	note A#, 1
	note __, 1
	note B_, 1
	note __, 1
	octave 3
	note C#, 1
	note __, 1
	note D_, 1
	note __, 1
	note D_, 1
	note __, 1
	note D_, 1
	octave 2
	note A_, 1
	note G_, 1
	note E_, 1
	loopchannel 0, Music_FollowMe_Ch3_loop

Music_FollowMe_Ch4:
	togglenoise 3
	notetype $C
	note D_, 2
	note D#, 2
	note D_, 2
	note D#, 2
	note D_, 2
	note D#, 2
	note D_, 2
	note D#, 2
	note D_, 2
	note D#, 2
	note D_, 2
	note D#, 2
	note D#, 2
	note D_, 2
	note D_, 1
	note D_, 1
	note D#, 2
Music_FollowMe_Ch4_loop:
	note D#, 2
	note D#, 2
	note D_, 2
	note D#, 2
	note D#, 2
	note D#, 2
	note D_, 2
	note D#, 2
	note D#, 2
	note D#, 2
	note D_, 2
	note D#, 2
	note D#, 2
	note D#, 2
	note D_, 2
	note D#, 2
	note D#, 2
	note D#, 2
	note D_, 2
	note D#, 2
	note D#, 2
	note D#, 2
	note D_, 2
	note D#, 2
	note D#, 2
	note D#, 2
	note D_, 2
	note D#, 2
	note D_, 2
	note D_, 2
	note D_, 2
	note D#, 2
	note D_, 2
	note D#, 2
	note D_, 2
	note D#, 2
	note D#, 2
	note D_, 2
	note D_, 1
	note D_, 1
	note D#, 2
	note D#, 2
	note D#, 2
	note D_, 2
	note D#, 2
	note D#, 2
	note D#, 2
	note D_, 2
	note D#, 2
	note D#, 2
	note D#, 2
	note D_, 2
	note D#, 2
	note D#, 2
	note D#, 2
	note D_, 2
	note D#, 2
	note D#, 2
	note D#, 2
	note D_, 2
	note D#, 2
	note D#, 2
	note D#, 2
	note D_, 2
	note D#, 2
	note D#, 2
	note D#, 2
	note D_, 2
	note D#, 2
	note D_, 2
	note D_, 2
	note D_, 2
	note D#, 2
	loopchannel 0, Music_FollowMe_Ch4_loop
