Music_PokemonCenterSinnoh:
	musicheader 4, 1, Music_PokemonCenterSinnoh_Ch1
	musicheader 1, 2, Music_PokemonCenterSinnoh_Ch2
	musicheader 1, 3, Music_PokemonCenterSinnoh_Ch3
	musicheader 1, 4, Music_PokemonCenterSinnoh_Ch4

Music_PokemonCenterSinnoh_Ch1:
	volume $77
	stereopanning $77
	tempo $A8
	tone $0002
Music_PokemonCenterSinnoh_Ch1_loop:
	octave 5
	notetype $C, $A1
	note __, 1
	octave 4
	note E_, 1
	note __, 1
	note B_, 1
	note __, 3
	note B_, 1
	note E_, 1
	note __, 3
	note E_, 2
	note B_, 1
	note __, 2
	octave 3
	note B_, 1
	note __, 1
	octave 4
	note F#, 1
	note __, 1
	note B_, 1
	note __, 1
	note F#, 1
	note __, 1
	note F#, 1
	note __, 1
	note D#, 1
	note A_, 1
	note __, 1
	note B_, 1
	note __, 2
	note F#, 1
	note __, 1
	note B_, 1
	note __, 1
	octave 3
	note B_, 1
	note __, 1
	octave 4
	note B_, 1
	note __, 1
	note A_, 1
	note __, 1
	note F#, 1
	note D#, 1
	note __, 1
	note B_, 1
	note __, 2
	octave 3
	note B_, 1
	note __, 1
	octave 4
	note E_, 1
	note __, 1
	note G#, 1
	note __, 1
	octave 3
	note B_, 1
	note __, 1
	octave 4
	note E_, 1
	note __, 1
	note E_, 1
	note __, 1
	note G#, 1
	note __, 1
	note B_, 1
	note __, 1
	note G#, 1
	note __, 1
	note E_, 1
	note __, 2
	note E_, 1
	octave 3
	note B_, 1
	octave 4
	note E_, 1
	note B_, 1
	note __, 2
	note E_, 1
	note B_, 1
	note __, 3
	note A_, 1
	note __, 1
	note E_, 1
	note __, 2
	note E_, 1
	note C#, 1
	note E_, 1
	octave 5
	note C#, 1
	note __, 1
	octave 4
	note A_, 1
	note __, 1
	note A_, 1
	octave 5
	note C#, 1
	note __, 2
	octave 4
	note F#, 1
	note __, 1
	octave 3
	note B_, 1
	note __, 2
	octave 4
	note F#, 1
	note A_, 1
	note B_, 1
	note D#, 1
	note __, 2
	octave 3
	note B_, 1
	octave 4
	note A_, 1
	note __, 5
	note E_, 1
	note __, 1
	octave 3
	note B_, 1
	note __, 1
	note E_, 1
	octave 2
	note B_, 1
	octave 3
	note E_, 1
	note G#, 1
	note B_, 1
	note E_, 1
	note G#, 1
	note B_, 1
	octave 4
	note E_, 3
	octave 3
	note B_, 1
	note __, 2
	note B_, 3
	note __, 2
	note B_, 1
	note __, 2
	note B_, 3
	note __, 2
	octave 4
	note C#, 1
	note __, 2
	note C#, 3
	note __, 2
	note C_, 1
	note __, 2
	note C_, 3
	note D#, 1
	note D#, 1
	note __, 1
	octave 3
	note B_, 1
	note __, 1
	note B_, 2
	note __, 1
	octave 4
	note C_, 1
	note C_, 1
	note __, 1
	note F#, 1
	note __, 1
	note F#, 2
	note __, 1
	note G#, 1
	note G#, 1
	note __, 1
	note C#, 1
	note __, 1
	note C#, 2
	note C#, 1
	note D_, 1
	note D_, 1
	note __, 1
	octave 3
	note B_, 1
	note __, 1
	note B_, 1
	note __, 1
	octave 4
	note E_, 1
	note __, 2
	octave 2
	note B_, 1
	octave 3
	note B_, 1
	note __, 2
	octave 2
	note G#, 1
	octave 3
	note G#, 1
	note __, 2
	octave 2
	note E_, 1
	octave 3
	note E_, 1
	note __, 2
	note D_, 1
	octave 4
	note D_, 1
	note C#, 1
	note C#, 1
	octave 3
	note A_, 1
	note A_, 1
	octave 4
	note C#, 1
	note C#, 1
	note E_, 1
	note E_, 1
	octave 3
	note A#, 1
	note G_, 1
	note E_, 1
	octave 2
	note A#, 1
	note G_, 1
	note __, 3
	note B_, 2
	note B_, 2
	note __, 2
	note B_, 2
	note __, 2
	note B_, 6
	note B_, 1
	note __, 1
	note B_, 1
	note __, 1
	octave 3
	note C#, 1
	note __, 1
	note D#, 1
	note __, 1
	note E_, 1
	note __, 1
	octave 2
	note E_, 1
	note __, 1
	note G#, 1
	note __, 1
	note B_, 1
	note __, 1
	dutycycle 2
	intensity $95
	octave 4
	note A_, 3
	note E_, 3
	note E_, 4
	note E_, 2
	note A_, 2
	note A_, 2
	note G#, 3
	note E_, 3
	note E_, 4
	note E_, 3
	note G#, 2
	note G#, 1
	note B_, 2
	note B_, 2
	note A#, 2
	note A_, 4
	note G#, 4
	note E_, 2
	note D#, 2
	note F#, 2
	note B_, 2
	note G#, 10
	dutycycle 0
	loopchannel 0, Music_PokemonCenterSinnoh_Ch1_loop

Music_PokemonCenterSinnoh_Ch2:
	tone $0001
	vibrato $10, $25
	dutycycle 1
Music_PokemonCenterSinnoh_Ch2_loop:
	octave 3
	notetype $C, $C2
	note E_, 2
	octave 2
	note B_, 2
	octave 3
	note E_, 2
	note B_, 4
	note A_, 3
	note G#, 3
	note F#, 2
	note D#, 14
	note D#, 2
	octave 2
	note B_, 2
	octave 3
	note D#, 2
	note G#, 4
	note F#, 3
	note D#, 3
	note E_, 2
	note G#, 14
	note E_, 2
	octave 2
	note B_, 2
	octave 3
	note E_, 1
	note B_, 5
	note A_, 4
	note G#, 2
	note F#, 1
	note D#, 15
	note D#, 2
	octave 2
	note B_, 2
	octave 3
	note D#, 1
	note G#, 5
	note F#, 4
	note D#, 2
	note D#, 1
	note E_, 15
	intensity $B7
	octave 4
	note G#, 8
	note B_, 8
	note A_, 2
	note B_, 2
	note A_, 2
	note G#, 2
	note F#, 8
	note D#, 8
	note F#, 8
	note G#, 2
	note A_, 2
	note G#, 2
	note F#, 2
	note E_, 8
	note G#, 2
	note G#, 4
	note B_, 4
	note B_, 6
	note A_, 2
	note G#, 2
	note A_, 2
	note B_, 2
	octave 5
	note C#, 8
	octave 4
	note B_, 4
	note A_, 2
	note G#, 2
	note A_, 8
	note G#, 2
	note A_, 2
	note G#, 2
	note F#, 2
	note E_, 2
	note G#, 2
	note B_, 2
	octave 5
	note E_, 2
	dutycycle 2
	note E_, 3
	note C#, 3
	note C#, 4
	note C#, 2
	note E_, 2
	note E_, 2
	note E_, 3
	octave 4
	note B_, 3
	note B_, 4
	note B_, 3
	octave 5
	note E_, 2
	note E_, 1
	note D#, 2
	note D#, 2
	note D_, 2
	note C#, 4
	octave 4
	note B_, 4
	note G#, 2
	note A_, 2
	note B_, 2
	octave 5
	note D#, 2
	note E_, 4
	octave 4
	note B_, 3
	dutycycle 1
	octave 3
	note B_, 3
	loopchannel 0, Music_PokemonCenterSinnoh_Ch2_loop

Music_PokemonCenterSinnoh_Ch3:
	notetype $C, $12
Music_PokemonCenterSinnoh_Ch3_loop:
	octave 2
	note E_, 1
	note __, 1
	note E_, 1
	note __, 1
	note F#, 1
	note G#, 1
	note __, 1
	note E_, 1
	note __, 1
	note E_, 1
	note B_, 1
	note __, 2
	note C#, 1
	note __, 1
	octave 1
	note B_, 1
	octave 2
	note D#, 1
	note __, 1
	note D#, 1
	note __, 1
	note F#, 1
	note B_, 1
	note __, 1
	note D#, 1
	note __, 1
	note D#, 1
	note B_, 1
	note __, 2
	note C#, 1
	note __, 1
	octave 1
	note B_, 1
	octave 2
	note F#, 1
	note __, 2
	note F#, 1
	note A_, 1
	note B_, 1
	note __, 1
	note F#, 1
	note __, 1
	note D#, 1
	note B_, 1
	note __, 2
	octave 1
	note B_, 1
	note __, 1
	octave 2
	note D#, 1
	note E_, 1
	note __, 1
	note E_, 1
	note __, 1
	note G#, 1
	note B_, 1
	note __, 1
	note E_, 1
	note __, 1
	note E_, 1
	note B_, 1
	note __, 2
	note C#, 1
	note __, 1
	octave 1
	note B_, 1
	octave 2
	note E_, 1
	note __, 1
	note E_, 1
	note __, 1
	note G#, 1
	note B_, 1
	note __, 1
	note E_, 1
	note __, 2
	note E_, 1
	note __, 2
	note E_, 1
	note C#, 1
	octave 1
	note B_, 1
	octave 2
	note E_, 1
	note __, 1
	note E_, 1
	note __, 1
	note A_, 1
	octave 3
	note C#, 1
	note __, 1
	octave 2
	note E_, 1
	note __, 2
	note E_, 1
	note __, 2
	note E_, 1
	note C#, 1
	octave 1
	note A_, 1
	octave 2
	note F#, 1
	note __, 1
	octave 1
	note B_, 1
	note __, 1
	octave 2
	note A_, 1
	note B_, 1
	note __, 1
	octave 1
	note B_, 1
	octave 2
	note D#, 1
	note __, 1
	octave 1
	note B_, 1
	note __, 1
	octave 2
	note A_, 1
	note B_, 1
	note __, 1
	octave 1
	note B_, 1
	octave 2
	note E_, 1
	note E_, 1
	note __, 1
	note F#, 1
	note __, 1
	note G#, 1
	note __, 1
	note E_, 1
	note __, 1
	note E_, 1
	note B_, 1
	note __, 2
	note C#, 1
	note __, 1
	note D#, 1
	note E_, 1
	octave 3
	note E_, 2
	octave 2
	note E_, 1
	note B_, 1
	octave 3
	note E_, 1
	note E_, 1
	octave 2
	note B_, 1
	note F_, 1
	octave 3
	note F_, 2
	octave 2
	note F_, 1
	note B_, 1
	octave 3
	note F_, 1
	note F_, 1
	octave 2
	note B_, 1
	note F#, 1
	octave 3
	note F#, 2
	octave 2
	note F#, 1
	octave 3
	note C#, 1
	note F#, 1
	note F#, 1
	note C#, 1
	octave 2
	note E_, 1
	octave 3
	note E_, 2
	octave 2
	note E_, 1
	octave 3
	note C_, 1
	note E_, 1
	note E_, 1
	note C_, 1
	octave 1
	note B_, 1
	note B_, 1
	octave 3
	note D#, 1
	octave 2
	note F#, 1
	octave 3
	note D#, 1
	octave 2
	note F#, 1
	octave 1
	note B_, 1
	octave 3
	note D#, 1
	octave 2
	note C_, 1
	note C_, 1
	octave 3
	note D#, 1
	octave 2
	note F#, 1
	octave 3
	note D#, 1
	octave 2
	note F#, 1
	note C_, 1
	octave 3
	note D#, 1
	octave 2
	note C#, 1
	note C#, 1
	octave 3
	note E_, 1
	octave 2
	note G#, 1
	octave 3
	note E_, 1
	octave 2
	note G#, 1
	note C#, 1
	octave 3
	note E_, 1
	octave 1
	note B_, 1
	octave 2
	note D_, 1
	note E_, 1
	note B_, 1
	note E_, 1
	note G#, 1
	note B_, 1
	octave 3
	note D_, 1
	note E_, 1
	note E_, 1
	note __, 1
	octave 2
	note B_, 1
	note __, 1
	note E_, 1
	note __, 2
	octave 3
	note D_, 1
	note D_, 1
	note __, 1
	octave 2
	note B_, 1
	note __, 1
	note E_, 1
	note __, 1
	note G#, 1
	note A_, 1
	note A_, 1
	note E_, 1
	note E_, 1
	note A_, 1
	note A_, 1
	octave 3
	note C#, 1
	note C#, 1
	octave 2
	note A#, 1
	note __, 4
	octave 3
	note E_, 1
	note C#, 1
	octave 2
	note A#, 1
	note B_, 1
	note __, 1
	note B_, 1
	note __, 1
	octave 3
	note E_, 1
	note F#, 1
	note __, 1
	octave 2
	note B_, 1
	note __, 1
	note A_, 1
	octave 1
	note B_, 1
	octave 2
	note F#, 1
	octave 1
	note B_, 1
	octave 2
	note E_, 1
	octave 1
	note B_, 1
	octave 2
	note A_, 1
	note B_, 1
	note __, 1
	note B_, 1
	note __, 1
	note A_, 1
	note B_, 1
	note __, 1
	note F#, 1
	note E_, 1
	note E_, 1
	octave 1
	note B_, 1
	octave 3
	note E_, 1
	note __, 1
	octave 2
	note B_, 1
	note E_, 1
	note B_, 1
	note A_, 1
	note A_, 2
	octave 3
	note C#, 1
	note __, 2
	octave 2
	note E_, 1
	note __, 1
	note A_, 1
	note A_, 2
	octave 3
	note C#, 1
	note __, 2
	octave 2
	note E_, 1
	note __, 1
	note G#, 1
	note G#, 2
	note B_, 1
	note __, 2
	note E_, 1
	note __, 1
	note G#, 1
	note G#, 2
	note B_, 1
	note __, 2
	octave 3
	note E_, 1
	note __, 1
	octave 2
	note B_, 1
	note __, 1
	note B_, 1
	note __, 1
	note A#, 1
	note __, 1
	note A_, 1
	note __, 3
	note G#, 1
	note __, 2
	note E_, 1
	note __, 1
	note E_, 1
	note B_, 1
	note B_, 1
	note __, 2
	note F#, 1
	note B_, 1
	note __, 1
	note E_, 1
	note __, 1
	note E_, 1
	note __, 1
	octave 3
	note E_, 1
	note __, 1
	octave 2
	note B_, 1
	octave 1
	note B_, 1
	octave 2
	note B_, 1
	loopchannel 0, Music_PokemonCenterSinnoh_Ch3_loop

Music_PokemonCenterSinnoh_Ch4:
	togglenoise 3
	notetype $C
Music_PokemonCenterSinnoh_Ch4_loop:
	note D#, 2
	note D#, 2
	note C_, 2
	note D#, 2
	note D#, 2
	note D#, 2
	note C_, 1
	note D#, 2
	note D#, 1
	note D#, 2
	note D#, 2
	note C_, 1
	note D#, 2
	note D#, 2
	note C_, 1
	note D#, 2
	note C_, 1
	note D#, 3
	note D#, 2
	note D#, 2
	note C_, 2
	note D#, 2
	note D#, 2
	note D#, 2
	note C_, 1
	note D#, 2
	note D#, 1
	note D#, 2
	note D#, 2
	note C_, 1
	note D#, 2
	note D#, 1
	note D#, 1
	note C_, 2
	note D#, 1
	note C_, 1
	note D#, 2
	note C_, 1
	note D#, 2
	note D#, 2
	note C_, 1
	note D#, 2
	note D#, 1
	note D#, 2
	note C_, 2
	note C_, 1
	note D#, 2
	note C_, 1
	note D#, 1
	note D#, 2
	note D#, 1
	note C_, 2
	note D#, 2
	note D#, 2
	note D#, 2
	note D#, 1
	note C_, 2
	note D#, 1
	note D#, 2
	note C_, 2
	note C_, 1
	note C_, 2
	note D#, 1
	note D#, 2
	note D#, 2
	note C_, 2
	note D#, 2
	note D#, 1
	note D#, 1
	note C_, 2
	note D#, 2
	note C_, 2
	note C_, 1
	note C_, 1
	note D#, 1
	note D#, 1
	note C_, 1
	note C_, 1
	note D#, 1
	note C_, 1
	note D#, 4
	note C_, 2
	note D#, 2
	note D#, 4
	note C_, 4
	note D#, 4
	note C_, 2
	note D#, 2
	note D#, 4
	note C_, 4
	note D#, 4
	note C_, 2
	note D#, 2
	note D#, 4
	note C_, 4
	note D#, 4
	note C_, 2
	note D#, 2
	note D#, 2
	note C_, 2
	note D#, 2
	note C_, 2
	note D#, 2
	note D#, 2
	note C_, 2
	note D#, 2
	note C_, 2
	note D#, 2
	note C_, 1
	note D#, 1
	note C_, 2
	note D#, 2
	note D#, 2
	note D#, 2
	note D#, 2
	note D#, 8
	note D#, 2
	note E_, 1
	note D#, 2
	note D#, 1
	note E_, 2
	note D#, 2
	note E_, 1
	note E_, 1
	note D#, 1
	note E_, 1
	note D#, 2
	note D#, 2
	note D#, 2
	note E_, 1
	note E_, 1
	note D#, 2
	note D#, 1
	note E_, 3
	note E_, 1
	note E_, 3
	note D#, 3
	note D#, 1
	note C_, 3
	note D#, 3
	note D#, 2
	note C_, 3
	note D#, 1
	note D#, 3
	note D#, 1
	note C_, 3
	note D#, 3
	note D#, 2
	note C_, 3
	note D#, 1
	note D#, 2
	note D#, 2
	note D#, 2
	note D#, 2
	note C_, 1
	note C_, 1
	note D#, 2
	note C_, 1
	note D#, 2
	note C_, 1
	note C_, 2
	note C_, 2
	note C_, 2
	note C_, 2
	note D#, 2
	note D#, 2
	note C_, 1
	note D#, 2
	note C_, 1
	loopchannel 0, Music_PokemonCenterSinnoh_Ch4_loop
