Music_Route228:
	musicheader 4, 1, Music_Route228_Ch1
	musicheader 1, 2, Music_Route228_Ch2
	musicheader 1, 3, Music_Route228_Ch3
	musicheader 1, 4, Music_Route228_Ch4

Music_Route228_Ch1:
	volume $77
	stereopanning $77
	tempo $C0
	tone $0002
	notetype $8, $A1
	note __, 9
	dutycycle 2
	octave 3
	note D#, 1
	note __, 4
	note D#, 1
	note __, 6
	note D_, 1
	note __, 4
	note D_, 1
	note __, 6
Music_Route228_Ch1_loop:
	note G_, 1
	note __, 2
	note A#, 1
	note __, 1
	note A#, 1
	note __, 3
	note G_, 1
	note __, 1
	note G_, 1
	note __, 2
	note D#, 1
	note G_, 1
	note __, 1
	note G_, 1
	note __, 3
	intensity $94
	note D#, 6
	note D#, 5
	note D_, 1
	note __, 3
	note F_, 1
	note __, 4
	note G#, 1
	note __, 2
	note F#, 1
	note G_, 2
	note A#, 1
	note __, 2
	note F#, 1
	note G_, 2
	note A#, 1
	note __, 2
	note F#, 1
	note G_, 1
	note __, 2
	note G_, 2
	note __, 3
	note A_, 3
	note C_, 1
	note D#, 2
	note __, 1
	note D#, 2
	note __, 1
	note D#, 2
	note D#, 1
	note __, 2
	note D_, 1
	note __, 3
	note G#, 1
	note __, 4
	note B_, 1
	note __, 2
	note F#, 1
	note G_, 2
	note A#, 1
	note __, 2
	note F#, 1
	note G_, 2
	note A#, 1
	note __, 2
	note F#, 1
	note A#, 2
	note A#, 1
	note __, 2
	note C#, 1
	note D#, 1
	note __, 1
	note E_, 3
	note __, 1
	note D#, 5
	note D#, 1
	note __, 9
	note F_, 5
	note F#, 4
	note G_, 5
	note G_, 1
	note __, 2
	note C#, 4
	note D#, 2
	note D#, 1
	note __, 5
	note C#, 1
	note __, 6
	note C_, 1
	note __, 2
	note C_, 2
	note C_, 1
	note __, 6
	note D#, 2
	note D#, 1
	note F#, 2
	note F#, 1
	note __, 3
	note D_, 2
	note D_, 1
	note __, 3
	note D_, 2
	note D_, 1
	note __, 6
	note F_, 7
	note __, 2
	dutycycle 1
	intensity $A1
	note B_, 2
	note __, 1
	note B_, 2
	note __, 1
	note B_, 2
	note A#, 1
	note __, 2
	note A_, 1
	note __, 3
	octave 4
	note D_, 1
	note __, 4
	note D_, 1
	note __, 2
	octave 3
	note B_, 1
	octave 4
	note C#, 1
	note __, 2
	octave 3
	note A#, 3
	note A#, 1
	note __, 1
	note A_, 1
	note __, 2
	octave 4
	note C#, 1
	note __, 2
	note C#, 1
	octave 3
	note A#, 2
	note __, 3
	octave 4
	note C#, 1
	note __, 2
	note D#, 1
	note E_, 2
	note __, 1
	note E_, 2
	note __, 1
	note E_, 2
	note D#, 1
	note __, 2
	note D_, 1
	note __, 2
	octave 3
	note A_, 1
	note __, 5
	octave 4
	note C_, 1
	note __, 2
	note D_, 1
	note D#, 3
	note __, 2
	note D#, 1
	note __, 3
	note D_, 1
	note __, 5
	note G#, 2
	note __, 1
	note G#, 2
	note G#, 1
	note __, 2
	note D#, 1
	note E_, 2
	note __, 1
	note C_, 1
	note __, 1
	note C#, 1
	note D_, 2
	note C_, 1
	note __, 2
	note D_, 1
	note D#, 2
	note C_, 2
	note C#, 2
	note D_, 2
	note C_, 1
	note __, 2
	note C_, 1
	note __, 3
	octave 3
	note B_, 1
	note __, 2
	octave 4
	note C_, 2
	note C_, 1
	note __, 2
	note E_, 1
	note F_, 2
	note F_, 3
	note E_, 1
	note __, 2
	octave 3
	note A#, 2
	note __, 5
	octave 4
	note C_, 2
	note __, 1
	note E_, 2
	note E_, 1
	note __, 3
	note C_, 2
	note __, 1
	note E_, 2
	note E_, 1
	note __, 9
	note C_, 2
	note __, 1
	note D#, 2
	note D#, 1
	note __, 3
	note C_, 2
	note __, 1
	note D#, 2
	note D#, 1
	note __, 9
	octave 3
	note G_, 1
	note __, 4
	note G_, 1
	note __, 6
	note G#, 1
	note __, 4
	note G#, 1
	note __, 6
	dutycycle 2
	loopchannel 0, Music_Route228_Ch1_loop

Music_Route228_Ch2:
	tone $0001
	notetype $8, $B2
	note __, 9
	octave 3
	note G_, 1
	note __, 4
	note G_, 1
	note __, 6
	note G#, 1
	note __, 4
	note G#, 1
	note __, 6
Music_Route228_Ch2_loop:
	note A#, 1
	note __, 2
	octave 4
	note D_, 1
	note __, 1
	note D_, 1
	note __, 3
	octave 3
	note A#, 1
	note __, 1
	note A#, 1
	note __, 2
	note F#, 1
	note A_, 1
	note __, 1
	note A_, 1
	intensity $B5
	note __, 3
	vibrato $06, $14
	octave 4
	note D#, 2
	note __, 1
	note D_, 2
	note __, 1
	note D#, 2
	note F#, 2
	note __, 1
	note F_, 1
	note __, 2
	note F_, 1
	notetype $4, $B5
	note D_, 1
	note D#, 3
	note __, 2
	note C_, 4
	octave 3
	note A#, 2
	note B_, 2
	note __, 2
	octave 4
	note C_, 2
	note __, 4
	note C_, 2
	note D_, 6
	note D#, 4
	note F#, 1
	note G_, 2
	note __, 3
	octave 3
	note B_, 2
	octave 4
	note D#, 4
	note D_, 2
	note D#, 4
	note F#, 1
	note G_, 2
	note __, 3
	note A#, 2
	note __, 4
	note A_, 2
	note G#, 4
	note __, 2
	note G_, 4
	note __, 2
	note G_, 1
	note G#, 3
	octave 5
	note C_, 4
	note __, 2
	octave 4
	note B_, 2
	note __, 4
	note B_, 2
	note G#, 4
	note __, 2
	note G_, 4
	note F_, 2
	note F#, 2
	note __, 2
	note G_, 2
	note __, 6
	octave 5
	note C_, 6
	note C#, 1
	note D_, 3
	octave 4
	note G_, 2
	note __, 4
	note B_, 2
	octave 5
	note C_, 4
	note C#, 2
	note D_, 4
	note E_, 4
	note __, 2
	octave 4
	note B_, 1
	octave 5
	note C_, 1
	octave 4
	note B_, 4
	note A#, 2
	note G#, 4
	note G_, 2
	note F_, 4
	note G_, 2
	note G#, 4
	note G_, 2
	note G#, 2
	octave 5
	note C_, 2
	octave 4
	note B_, 2
	note A#, 2
	note B_, 2
	octave 5
	note C_, 2
	octave 4
	note A#, 4
	note F#, 2
	octave 5
	note D_, 2
	note C#, 2
	note D_, 4
	note __, 2
	note C_, 2
	note C#, 1
	note D_, 3
	note F_, 2
	note D#, 4
	note C#, 2
	note C_, 2
	octave 4
	note B_, 2
	note A#, 2
	note A_, 4
	note A#, 2
	octave 5
	note C_, 4
	octave 4
	note G_, 2
	note G#, 2
	note A_, 2
	note A#, 2
	octave 5
	note D#, 2
	note C#, 2
	note C_, 2
	octave 4
	note A#, 1
	note B_, 3
	octave 5
	note C_, 2
	octave 4
	note G#, 2
	note G_, 2
	note F#, 2
	note F_, 4
	note B_, 2
	octave 5
	note C_, 2
	octave 4
	note B_, 2
	octave 5
	note C_, 4
	note __, 2
	octave 4
	note G_, 2
	note A_, 2
	note G#, 2
	note G_, 2
	note F#, 4
	note B_, 2
	octave 5
	note C_, 2
	octave 4
	note B_, 2
	octave 5
	note C_, 4
	octave 4
	note D_, 1
	note D#, 3
	note F#, 4
	note F#, 2
	note __, 4
	note D_, 1
	note D#, 1
	note F#, 4
	note F#, 2
	octave 3
	note G_, 2
	octave 4
	note C_, 2
	note D_, 2
	note F_, 2
	note F_, 2
	note __, 2
	note A#, 16
	note __, 2
	dutycycle 2
	intensity $B2
	octave 5
	note F_, 4
	note E_, 4
	note D#, 4
	note D#, 1
	note E_, 3
	note D#, 2
	note D_, 2
	note C#, 2
	note C_, 2
	note __, 4
	octave 4
	note B_, 2
	octave 5
	note C_, 4
	note D#, 2
	note E_, 4
	note C_, 2
	note C#, 1
	note D_, 1
	note C_, 2
	octave 4
	note E_, 2
	note G_, 4
	note F#, 2
	note F_, 4
	note A#, 6
	octave 5
	note C_, 2
	octave 4
	note A#, 1
	octave 5
	note C_, 1
	octave 4
	note A#, 2
	note A_, 2
	note __, 4
	note G#, 2
	note A_, 4
	octave 5
	note C_, 2
	note D_, 1
	note D#, 3
	note C_, 4
	note D_, 2
	note D#, 2
	note E_, 4
	octave 4
	note A_, 4
	note A_, 4
	octave 5
	note D#, 1
	note E_, 3
	octave 4
	note A_, 4
	note A_, 4
	note G#, 4
	octave 5
	note C_, 2
	note D_, 2
	note C#, 2
	note C_, 2
	note E_, 4
	note C_, 2
	note __, 2
	note D_, 1
	note D#, 3
	note F#, 2
	note __, 4
	note D#, 2
	note __, 4
	note F_, 1
	note F#, 3
	note F#, 2
	note __, 4
	note F_, 2
	note __, 4
	octave 4
	note G_, 2
	note G#, 4
	note A#, 2
	note G#, 4
	note G_, 4
	note G#, 4
	note A_, 2
	note __, 4
	note F_, 2
	note __, 2
	octave 5
	note C_, 6
	note C_, 2
	note D_, 2
	note C#, 2
	note C_, 2
	note D_, 1
	note D#, 3
	note D#, 4
	note C_, 4
	note E_, 4
	note F_, 4
	note F#, 4
	note G_, 4
	note C_, 2
	note D_, 4
	note C_, 2
	note E_, 4
	note F_, 4
	note F#, 4
	note G_, 4
	note C_, 2
	note D_, 4
	note C_, 2
	note E_, 4
	note F_, 2
	note E_, 2
	note F_, 2
	note F#, 2
	note F#, 1
	note G_, 3
	note G_, 2
	note __, 4
	note C_, 2
	note D_, 4
	note C_, 2
	note D#, 1
	note E_, 2
	note __, 1
	note C_, 2
	note __, 4
	note C_, 2
	note D_, 4
	note C_, 2
	note E_, 2
	note __, 2
	note E_, 4
	note F_, 2
	note F#, 2
	note F#, 1
	note G_, 3
	note G_, 2
	note __, 4
	note C_, 2
	note D_, 4
	note C_, 2
	note D_, 1
	note D#, 2
	note __, 1
	note C_, 2
	note __, 4
	note C_, 2
	note D_, 4
	note C_, 2
	note D#, 2
	note D_, 2
	note C_, 2
	octave 4
	note G_, 2
	note F#, 2
	note F_, 2
	note D#, 2
	note F_, 2
	intensity $B5
	notetype $A, $B5
	note D#, 8
	note __, 12
	notetype $8, $B2
	dutycycle 0
	vibrato $00, $00
	octave 3
	loopchannel 0, Music_Route228_Ch2_loop

Music_Route228_Ch3:
	notetype $8, $12
	note __, 6
	octave 2
	note G#, 2
	note __, 1
	note G#, 2
	note __, 3
	note G#, 2
	note __, 1
	note G#, 1
Music_Route228_Ch3_loop:
	note G_, 2
	note __, 1
	note G_, 2
	note __, 3
	note G_, 2
	note __, 1
	note G_, 1
	octave 3
	note C_, 2
	note __, 1
	note C_, 2
	note __, 3
	note C_, 2
	note __, 1
	note C_, 1
	note D#, 2
	note __, 1
	note C_, 2
	note __, 1
	octave 2
	note B_, 2
	note __, 1
	note A#, 2
	note __, 1
	note G#, 2
	note __, 1
	note G#, 2
	note __, 1
	note G#, 2
	note G#, 1
	note D#, 2
	note __, 1
	note G_, 2
	note __, 1
	note G_, 2
	note __, 1
	note G_, 2
	note G_, 1
	octave 1
	note B_, 2
	note __, 1
	octave 2
	note C_, 2
	note __, 1
	note C_, 2
	note __, 1
	octave 1
	note B_, 2
	note __, 1
	note B_, 2
	note __, 1
	note A#, 2
	note __, 1
	note A#, 2
	note __, 1
	note A_, 2
	note __, 1
	note A_, 2
	note __, 1
	note G#, 2
	note __, 1
	note G#, 2
	note __, 1
	octave 2
	note G#, 2
	note G#, 1
	note F#, 2
	note __, 1
	note G_, 2
	note __, 1
	note G_, 2
	note __, 1
	note G#, 2
	note G_, 1
	note B_, 1
	note __, 1
	octave 3
	note C_, 1
	note __, 2
	note C_, 1
	octave 2
	note C_, 2
	note __, 1
	note G_, 2
	note C_, 2
	note __, 1
	note G_, 2
	note G_, 1
	note __, 1
	note C_, 2
	note __, 1
	note E_, 2
	note F_, 1
	note G_, 2
	note F_, 1
	note F_, 2
	note __, 1
	note F_, 2
	note __, 1
	octave 3
	note C_, 2
	octave 2
	note F_, 1
	note __, 2
	octave 3
	note C_, 1
	octave 2
	note A#, 2
	note __, 1
	note A#, 2
	note __, 1
	octave 1
	note A#, 2
	octave 2
	note F_, 1
	note __, 2
	octave 1
	note A#, 1
	octave 2
	note D#, 2
	note __, 1
	note D#, 2
	note __, 1
	note A#, 2
	note D#, 1
	note __, 2
	note A#, 1
	octave 3
	note C_, 2
	note __, 1
	note C_, 2
	note __, 1
	octave 2
	note C_, 2
	note A#, 1
	note __, 2
	note G_, 1
	note F_, 2
	note __, 1
	note F_, 2
	octave 3
	note C_, 1
	note __, 2
	note C_, 1
	octave 2
	note F_, 2
	note __, 1
	note F#, 2
	note __, 1
	note F#, 2
	octave 3
	note C_, 1
	note __, 2
	note C_, 1
	octave 2
	note F#, 2
	note G#, 1
	note G_, 2
	note G_, 1
	note __, 3
	note G_, 2
	note G_, 1
	note __, 6
	octave 1
	note G_, 8
	note __, 1
	octave 2
	note C_, 2
	note __, 1
	note C_, 2
	note __, 3
	note C_, 2
	note __, 1
	note G_, 1
	octave 3
	note C_, 2
	octave 2
	note G_, 1
	note __, 2
	note G_, 1
	note C_, 2
	note C_, 1
	note G_, 2
	note __, 1
	octave 1
	note A_, 2
	note __, 1
	note A_, 2
	note __, 3
	note A_, 2
	note __, 1
	octave 2
	note E_, 1
	note G_, 2
	note E_, 1
	note __, 2
	note E_, 1
	octave 1
	note A_, 2
	note A_, 1
	octave 2
	note E_, 2
	note __, 1
	note D_, 2
	note __, 1
	note D_, 2
	note __, 3
	note D_, 2
	note __, 1
	note A_, 1
	octave 3
	note D_, 2
	octave 2
	note A_, 1
	note __, 2
	note A_, 1
	note D_, 2
	note D_, 1
	note A_, 2
	note __, 1
	note G_, 2
	note __, 1
	note G_, 2
	note __, 3
	note G_, 2
	note __, 1
	note B_, 1
	octave 3
	note D_, 2
	octave 2
	note G_, 1
	note __, 2
	note G_, 1
	note G#, 2
	note G#, 1
	note G_, 2
	note __, 1
	note F_, 2
	note __, 1
	note C_, 2
	note F_, 1
	note __, 2
	octave 3
	note C_, 2
	note __, 2
	octave 2
	note F_, 2
	note __, 1
	note C_, 2
	note F_, 1
	note __, 2
	octave 3
	note C_, 2
	note __, 2
	octave 2
	note C_, 2
	note __, 1
	note G_, 2
	octave 3
	note C_, 1
	note __, 2
	octave 2
	note E_, 1
	octave 3
	note C_, 2
	octave 2
	note B_, 1
	note A#, 2
	note C#, 1
	note A#, 2
	note A_, 1
	note __, 2
	note C#, 1
	note E_, 2
	note __, 1
	note D_, 1
	note __, 2
	note F_, 2
	note D_, 1
	note A_, 2
	note A_, 1
	note __, 2
	note D_, 1
	note __, 2
	note D_, 1
	note F_, 2
	note D_, 1
	note A_, 2
	note A_, 1
	note __, 2
	note D_, 1
	note C_, 1
	note __, 2
	note F_, 2
	note C_, 1
	note G#, 2
	note G#, 1
	note __, 2
	note C_, 1
	note __, 2
	note C_, 1
	note F_, 2
	note C_, 1
	note G#, 2
	note G#, 1
	note __, 1
	note A#, 1
	note B_, 1
	octave 3
	note C_, 2
	note __, 1
	octave 2
	note G#, 2
	note __, 3
	note G#, 2
	note __, 1
	note G#, 1
	loopchannel 0, Music_Route228_Ch3_loop

Music_Route228_Ch4:
	togglenoise 3
	notetype $8
	note G#, 2
	note G_, 1
	note F#, 3
Music_Route228_Ch4_loop:
	note D#, 3
	note D#, 3
	note C_, 2
	note D#, 3
	note D#, 1
	note D#, 3
	note D#, 3
	note C_, 2
	note D#, 1
	note C_, 3
	note D#, 3
	note D#, 3
	note C_, 2
	note D#, 3
	note C_, 1
	note D#, 3
	note D#, 3
	note C_, 2
	note D#, 1
	note C_, 2
	note D#, 1
	loopchannel 0, Music_Route228_Ch4_loop

