Music_CinnabarGSC: ; f5127
	musicheader 2, 1, Music_CinnabarGSC_Ch1
	musicheader 1, 2, Music_CinnabarGSC_Ch2

Music_CinnabarGSC_Ch1:
	tempo $118
	volume $77
	stereopanning $77
	dutycycle 1
	notetype $C, $B6
Music_CinnabarGSC_Ch1_loop:
	note __, 4
	octave 3
	note D_, 4
	note E_, 6
	note C#, 2
	note D_, 4
	note B_, 4
	octave 4
	note C_, 6
	octave 3
	note A_, 2
	note B_, 4
	note G_, 4
	note F#, 4
	note E_, 2
	note F#, 2
	note G_, 8
	note F#, 4
	note E_, 4
	note D_, 4
	note E_, 4
	note F#, 6
	note A_, 2
	note G_, 4
	note B_, 4
	octave 4
	note C_, 6
	octave 3
	note A_, 2
	note B_, 4
	note G_, 4
	note F#, 3
	note E_, 1
	note F#, 2
	note A_, 2
	note G_, 4
	octave 4
	note D_, 1
	note E_, 1
	note D_, 4
	note D_, 1
	note E_, 1
	note D_, 4
	octave 3
	note B_, 6
	note G_, 2
	note E_, 8
	octave 4
	note C_, 6
	octave 3
	note A_, 2
	note F#, 8
	octave 4
	note F#, 6
	note D_, 2
	octave 3
	note B_, 2
	note A_, 2
	note G_, 2
	note F#, 2
	note G_, 8
	note F#, 4
	note E_, 4
	loopchannel 0, Music_CinnabarGSC_Ch1_loop

Music_CinnabarGSC_Ch2:
	dutycycle 1
	notetype $C, $C6
Music_CinnabarGSC_Ch2_loop:
	octave 3
	note G_, 6
	note A_, 1
	note B_, 1
	octave 4
	note C_, 6
	note D_, 1
	note E_, 1
	note D_, 4
	note G_, 4
	note A_, 6
	note G_, 1
	note F#, 1
	note E_, 4
	note D_, 4
	note C_, 3
	octave 3
	note B_, 1
	octave 4
	note C_, 2
	note E_, 2
	note D_, 4
	octave 3
	note B_, 8
	note A_, 4
	note G_, 6
	note A_, 1
	note B_, 1
	octave 4
	note C_, 6
	note D_, 1
	note E_, 1
	note D_, 4
	note G_, 4
	note A_, 6
	note G_, 1
	note F#, 1
	note E_, 4
	note D_, 4
	note C_, 3
	octave 3
	note B_, 1
	octave 4
	note C_, 2
	note D_, 1
	note E_, 1
	note D_, 4
	octave 3
	note A_, 4
	note G_, 4
	note F#, 4
	octave 4
	note D_, 6
	octave 3
	note B_, 2
	note G_, 8
	octave 4
	note E_, 6
	note C_, 2
	octave 3
	note A_, 8
	octave 4
	note A_, 6
	note F#, 2
	note D_, 2
	note C_, 2
	octave 3
	note B_, 2
	note A_, 2
	note B_, 4
	octave 4
	note D_, 4
	octave 3
	note B_, 2
	note A_, 6
	loopchannel 0, Music_CinnabarGSC_Ch2_loop
